<?xml version="1.0" encoding="utf-8"?>
<!-- Generator: Adobe Illustrator 20.1.0, SVG Export Plug-In . SVG Version: 6.00 Build 0)  -->
<svg version="1.1" id="Layer_1" xmlns="http://www.w3.org/2000/svg" xmlns:xlink="http://www.w3.org/1999/xlink" x="0px" y="0px"
	 viewBox="0 0 640 127.6" style="enable-background:new 0 0 640 127.6;" xml:space="preserve">
<style type="text/css">
	.st0{fill:#E94C64;}
</style>
<g>
	<path class="st0" d="M299.8,67.1c1.9,1.1,4.5,1.8,6.9,1.8c3.1,0,6-1,8.3-2.9c0.2,1.3,1.3,2.3,2.6,2.3h0.4c1.5,0,2.7-1.2,2.7-2.7
		v-36c0-1.6-1.3-2.9-2.9-2.9c-1.6,0-2.9,1.3-2.9,2.9v13.2c-2.3-1.8-5.1-2.8-8.2-2.8c-2.5,0-4.8,0.6-6.8,1.8
		c-4.4,2.6-7.1,7.4-7.1,12.6C292.7,59.8,295.3,64.5,299.8,67.1z M314.8,59.6c-1.8,2.4-4.5,3.8-7.3,3.8c-5,0-8.9-3.9-8.9-8.8
		c0-5,3.7-8.8,8.6-8.8c2.9,0,5.8,1.4,7.6,3.8V59.6z"/>
	<path class="st0" d="M353.1,68.4c1.5,0,2.7-1.2,2.7-2.7V43.4c0-1.5-1.2-2.7-2.7-2.7h-0.4c-1.3,0-2.4,1-2.6,2.3
		c-2.4-1.9-5.2-2.9-8.4-2.9c-2.5,0-4.8,0.6-6.8,1.8c-4.4,2.6-7.1,7.4-7.1,12.6c0,5.3,2.6,10,7.1,12.6c1.9,1.1,4.5,1.8,6.9,1.8
		c3.1,0,6-1,8.3-2.9c0.2,1.3,1.3,2.3,2.6,2.3H353.1z M342.6,63.4c-5,0-8.9-3.9-8.9-8.8c0-5,3.7-8.8,8.6-8.8c2.9,0,5.8,1.4,7.6,3.8
		v10.1C348.1,62,345.4,63.4,342.6,63.4z"/>
	<path class="st0" d="M372.5,65.4l-5.7,12.9v0c-0.4,0.9-0.3,1.9,0.2,2.7c0.5,0.8,1.4,1.3,2.4,1.3c1.1,0,2.2-0.7,2.6-1.7l15.6-35.9
		c0.4-0.9,0.3-1.9-0.2-2.7c-0.5-0.8-1.4-1.3-2.4-1.3c-1.1,0-2.2,0.7-2.6,1.7l-7,16l-7.6-16.1c-0.5-1-1.5-1.6-2.6-1.6
		c-1,0-1.9,0.5-2.4,1.3c-0.5,0.8-0.6,1.9-0.2,2.7L372.5,65.4z"/>
	<path class="st0" d="M436.1,54.6c0-8.2-6.1-14.4-14.3-14.4c-8.1,0-14.3,6.2-14.3,14.4S413.7,69,421.9,69
		C430,69,436.1,62.8,436.1,54.6z M421.9,63.4c-4.8,0-8.4-3.8-8.4-8.8s3.6-8.8,8.4-8.8s8.4,3.8,8.4,8.8S426.6,63.4,421.9,63.4z"/>
	<path class="st0" d="M465.6,68.4h0.4c1.5,0,2.7-1.2,2.7-2.7V43.4c0-1.5-1.2-2.7-2.7-2.7h-0.6c-1.5,0-2.7,1.2-2.7,2.7v16.2
		c-1,1.2-3.7,3.8-7.5,3.8c-2,0-3.9-0.9-5.1-2.3c-1.1-1.3-1.5-2.8-1.5-5.3v-12c0-1.6-1.3-2.9-2.9-2.9c-1.6,0-2.9,1.3-2.9,2.9v11.2
		c0,4.4,0.8,7.3,2.5,9.5c2.4,3,5.9,4.7,9.8,4.7c3.6,0,6.5-1.7,7.8-2.9C463.1,67.4,464.2,68.4,465.6,68.4z"/>
	<path class="st0" d="M492.5,68.9c0.7-0.1,1.4-0.5,1.9-1.1c0.5-0.6,0.6-1.4,0.5-2.2l0-0.2c-0.3-1.3-1.5-2.2-2.8-2.1
		c-0.3,0-0.7,0-0.9,0c-1.5,0-3-0.6-3.6-1.4c-0.6-0.7-0.8-1.9-0.8-3.4V46h6.1c1.5,0,2.7-1.2,2.7-2.7s-1.2-2.7-2.7-2.7h-6.1v-4.6
		c0-1.6-1.3-2.9-2.9-2.9c-1.6,0-2.9,1.3-2.9,2.9v4.6h-4.3c-1.5,0-2.7,1.2-2.7,2.7s1.2,2.7,2.7,2.7h4.3v12.3c0,3.3,0.7,5.7,2.3,7.4
		c1.9,2.1,4.6,3.3,7.9,3.3C491.4,69,491.9,68.9,492.5,68.9z"/>
	<path class="st0" d="M332.1,99.4c-1.2,0-2.2,0.7-2.6,1.8l-6.6,16.5l-6.6-16.5c-0.4-1.1-1.5-1.8-2.6-1.8h-0.3
		c-1.2,0-2.2,0.7-2.6,1.8l-6.6,16.5l-6.6-16.5c-0.4-1.1-1.5-1.8-2.6-1.8c-0.9,0-1.8,0.5-2.3,1.2c-0.5,0.8-0.6,1.8-0.3,2.6l8.9,22
		c0.4,1.1,1.5,1.8,2.6,1.8h0.3c1.2,0,2.2-0.7,2.6-1.8l6.8-17.1l6.8,17.1c0.4,1.1,1.5,1.8,2.6,1.8h0.3c1.2,0,2.2-0.7,2.6-1.8l8.9-22
		c0.4-0.9,0.3-1.9-0.3-2.6C333.9,99.8,333,99.4,332.1,99.4z"/>
	<path class="st0" d="M344.6,99.4H344c-1.5,0-2.7,1.2-2.7,2.7v22.3c0,1.5,1.2,2.7,2.7,2.7h0.6c1.5,0,2.7-1.2,2.7-2.7V102
		C347.2,100.6,346,99.4,344.6,99.4z"/>
	<path class="st0" d="M344.3,86c-2.1,0-3.8,1.7-3.8,3.8c0,2.1,1.7,3.8,3.8,3.8c2.2,0,3.8-1.7,3.8-3.8C348.1,87.7,346.4,86,344.3,86z
		"/>
	<path class="st0" d="M371.3,104.7c1.5,0,2.7-1.2,2.7-2.7c0-1.5-1.2-2.7-2.7-2.7h-6.1v-4.9c0-1.5-1.2-2.7-2.7-2.7H362
		c-1.5,0-2.7,1.2-2.7,2.7v4.9H355c-1.5,0-2.7,1.2-2.7,2.7c0,1.5,1.2,2.7,2.7,2.7h4.3V117c0,3.3,0.7,5.7,2.3,7.4
		c1.9,2.1,4.6,3.3,7.9,3.3c0.5,0,1.1,0,1.6-0.1c0.7-0.1,1.4-0.5,1.9-1.1c0.5-0.6,0.6-1.4,0.5-2.2l0-0.2c-0.3-1.3-1.5-2.2-2.8-2.1
		c-0.3,0-0.7,0-0.9,0c-1.5,0-3-0.6-3.6-1.4c-0.6-0.7-0.8-1.9-0.8-3.4v-12.6H371.3z"/>
	<path class="st0" d="M394.8,98.8c-3.7,0-6.4,1.6-7.8,2.8V88.1c0-1.5-1.2-2.7-2.7-2.7h-0.6c-1.5,0-2.7,1.2-2.7,2.7v36.3
		c0,1.5,1.2,2.7,2.7,2.7h0.6c1.5,0,2.7-1.2,2.7-2.7v-16.2c1.2-1.4,3.7-3.8,7.6-3.8c2.2,0,4.2,1,5.5,2.6c0.8,1,1.6,2.5,1.6,6.2v11.2
		c0,1.5,1.2,2.7,2.7,2.7h0.6c1.5,0,2.7-1.2,2.7-2.7v-10.9c0-4.5-0.8-7.4-2.7-9.8C402.4,100.6,398.8,98.8,394.8,98.8z"/>
	<path class="st0" d="M446.1,104.7c1.5,0,2.7-1.2,2.7-2.7c0-1.5-1.2-2.7-2.7-2.7h-6.1v-4.9c0-1.5-1.2-2.7-2.7-2.7h-0.6
		c-1.5,0-2.7,1.2-2.7,2.7v4.9h-4.3c-1.5,0-2.7,1.2-2.7,2.7c0,1.5,1.2,2.7,2.7,2.7h4.3V117c0,3.3,0.7,5.7,2.3,7.4
		c1.9,2.1,4.6,3.3,7.9,3.3c0.5,0,1.1,0,1.6-0.1c0.7-0.1,1.4-0.5,1.9-1.1c0.5-0.6,0.6-1.4,0.5-2.2l0-0.2c-0.3-1.3-1.5-2.2-2.8-2.1
		c-0.3,0-0.7,0-0.9,0c-1.5,0-3-0.6-3.6-1.4c-0.6-0.7-0.8-1.9-0.8-3.4v-12.6H446.1z"/>
	<path class="st0" d="M469.7,98.8c-3.7,0-6.4,1.6-7.8,2.8V88.1c0-1.5-1.2-2.7-2.7-2.7h-0.6c-1.5,0-2.7,1.2-2.7,2.7v36.3
		c0,1.5,1.2,2.7,2.7,2.7h0.6c1.5,0,2.7-1.2,2.7-2.7v-16.2c1.2-1.4,3.7-3.8,7.6-3.8c2.2,0,4.2,1,5.5,2.6c0.8,1,1.6,2.5,1.6,6.2v11.2
		c0,1.5,1.2,2.7,2.7,2.7h0.6c1.5,0,2.7-1.2,2.7-2.7v-10.9c0-4.5-0.8-7.4-2.7-9.8C477.3,100.6,473.6,98.8,469.7,98.8z"/>
	<path class="st0" d="M502.5,98.8c-7.8,0-13.5,6.1-13.5,14.4c0,8.2,6.1,14.4,14.3,14.4c4.6,0,7.8-1.7,9.6-3.1c0.6-0.5,1-1.2,1-2
		c0-0.8-0.3-1.5-0.8-2l0,0c-1-0.9-2.5-1-3.6-0.1c-1.7,1.4-3.7,2.1-6.1,2.1c-4.5,0-8.2-3.4-8.6-7.9h20c0,0,1.1-0.1,1-1.3
		C515.8,105,510.1,98.8,502.5,98.8z M495.3,109.5c1-3.3,4-5.5,7.4-5.5c3.2,0,6.1,2.4,7,5.5H495.3z M494.8,114.5h20c0,0,1,0,1-1.3"/>
	<path class="st0" d="M550.2,111.9l8.5-7.7c0.9-0.8,1.1-1.9,0.7-3c-0.4-1.1-1.4-1.8-2.6-1.8h-0.1c-0.7,0-1.4,0.3-1.9,0.7l-10.3,9.5
		V88.4c0-1.6-1.3-2.9-2.9-2.9c-1.6,0-2.9,1.3-2.9,2.9v35.7c0,1.6,1.3,2.9,2.9,2.9c1.6,0,2.9-1.3,2.9-2.9v-10.1l12.5,12.3
		c0.5,0.5,1.2,0.8,1.9,0.8c1.1,0,2.1-0.7,2.6-1.7c0.4-1.1,0.2-2.2-0.6-3L550.2,111.9z"/>
	<path class="st0" d="M573.5,99.4L573.5,99.4c-1.6,0-2.9,1.3-2.9,2.9v21.8c0,1.6,1.3,2.9,2.9,2.9c1.6,0,2.9-1.3,2.9-2.9v-21.8
		C576.5,100.7,575.2,99.4,573.5,99.4z"/>
	<path class="st0" d="M573.5,86c-2.1,0-3.8,1.7-3.8,3.8c0,2.1,1.7,3.8,3.8,3.8c2.2,0,3.8-1.7,3.8-3.8C577.4,87.7,575.6,86,573.5,86z
		"/>
	<path class="st0" d="M608.9,85.4h-0.6c-1.5,0-2.7,1.2-2.7,2.7v13.5c-2.3-1.8-5.1-2.8-8.2-2.8c-2.5,0-4.8,0.6-6.8,1.8
		c-4.4,2.6-7.1,7.4-7.1,12.6c0,5.3,2.6,10,7.1,12.6c1.9,1.1,4.5,1.8,6.9,1.8c3.1,0,6-1,8.3-2.9c0.2,1.3,1.3,2.3,2.7,2.3h0.3
		c1.5,0,2.7-1.2,2.7-2.7V88.1C611.6,86.6,610.4,85.4,608.9,85.4z M598.4,122c-5,0-8.9-3.9-8.9-8.8c0-5,3.7-8.8,8.6-8.8
		c2.9,0,5.8,1.4,7.6,3.8v10.1C603.9,120.6,601.2,122,598.4,122z"/>
	<path class="st0" d="M630,110.2c-2.9-0.7-4.7-1.3-4.7-3c0-2.2,2.5-3.2,4.7-3.2c1.4,0,2.7,0.3,4,1c1.1,0.6,2.6,0.2,3.3-0.8
		c0.5-0.6,0.6-1.4,0.4-2.2c-0.2-0.8-0.7-1.4-1.4-1.8c-2-1-4.2-1.5-6.7-1.5c-5,0-10.3,2.7-10.3,8.7c0,3.3,2.2,5.8,6.4,7.2
		c1,0.3,2,0.6,2.9,0.8c2.9,0.8,5.5,1.4,5.5,3.6c0,2-2.3,3.2-4.6,3.2c-2,0-4.1-0.6-6.1-1.7c-1.2-0.7-2.8-0.4-3.5,0.7l-0.1,0.1
		c-0.4,0.6-0.6,1.4-0.4,2.1c0.2,0.7,0.6,1.3,1.2,1.6c2.7,1.6,5.7,2.3,9,2.3c5,0,10.3-3,10.3-8.5C640,113.5,635,111.5,630,110.2z"/>
</g>
<g>
	<path class="st0" d="M102.7,57c1.9-0.8,3.8-1.5,5.7-2.2L92.1,10c-0.6-1.6-2.3-2.4-3.9-1.8c-1.6,0.6-2.4,2.3-1.8,3.9L102.7,57z"/>
	<path class="st0" d="M77.1,73.1c1.5-1.4,3.1-2.7,4.7-3.9L50.3,31.6c-1.1-1.3-3-1.5-4.3-0.4c-1.3,1.1-1.5,3-0.4,4.3L77.1,73.1z"/>
	<path class="st0" d="M185.6,12.1c0.6-1.6-0.2-3.3-1.8-3.9c-1.6-0.6-3.3,0.2-3.9,1.8l-16.1,44.4c1.9,0.6,3.9,1.3,5.8,2.1L185.6,12.1
		z"/>
	<path class="st0" d="M226.3,35.5c1.1-1.3,0.9-3.2-0.4-4.3c-1.3-1.1-3.2-0.9-4.3,0.4l-30.9,36.9c1.6,1.2,3.2,2.5,4.7,3.9L226.3,35.5
		z"/>
	<path class="st0" d="M14.4,74.2l42.3,24.4c1-1.8,2-3.6,3.1-5.3L17.4,68.9c-1.5-0.8-3.3-0.3-4.2,1.1C12.4,71.5,12.9,73.4,14.4,74.2z
		"/>
	<path class="st0" d="M139.8,50.1V3.1c0-1.7-1.4-3.1-3.1-3.1c-1.7,0-3.1,1.4-3.1,3.1v47.1c1,0,2-0.1,3-0.1
		C137.7,50.1,138.7,50.1,139.8,50.1z"/>
	<path class="st0" d="M216.2,98.1l41.3-23.8c1.5-0.8,2-2.7,1.1-4.2c-0.8-1.5-2.7-2-4.2-1.1l-41.4,23.9
		C214.2,94.5,215.2,96.3,216.2,98.1z"/>
	<path class="st0" d="M269,121h-53.2c-9.3-36.6-41.7-61.9-79.7-61.9c-37.4,0-70.5,25.9-79.7,61.9H3.1c-1.7,0-3.1,1.4-3.1,3.1
		s1.4,3.1,3.1,3.1h55.5c0.1,0,0.1,0,0.2,0c1.4,0,2.7-1,3-2.4c7.6-34.5,38.9-59.5,74.3-59.5c35.2,0,66.3,24.8,74.1,59
		c0.1,1.6,1.4,2.9,3.1,2.9H269c1.7,0,3.1-1.4,3.1-3.1S270.7,121,269,121z"/>
</g>
</svg>
